{
	"asset":{
		"generator":"Khronos glTF Blender I/O v4.2.57",
		"version":"2.0"
	},
	"scene":0,
	"scenes":[
		{
			"name":"Scene",
			"nodes":[
				0
			]
		}
	],
	"nodes":[
		{
			"mesh":0,
			"name":"\u30c8\u30fc\u30e9\u30b9",
			"rotation":[
				0.5,
				0.5,
				-0.5,
				0.4999999701976776
			],
			"scale":[
				1,
				1,
				0.8660045266151428
			],
			"translation":[
				0,
				3.675337076187134,
				0
			]
		}
	],
	"animations":[
		{
			"channels":[
				{
					"sampler":0,
					"target":{
						"node":0,
						"path":"translation"
					}
				},
				{
					"sampler":1,
					"target":{
						"node":0,
						"path":"rotation"
					}
				},
				{
					"sampler":2,
					"target":{
						"node":0,
						"path":"scale"
					}
				}
			],
			"name":"\u30c8\u30fc\u30e9\u30b9\u30a2\u30af\u30b7\u30e7\u30f3",
			"samplers":[
				{
					"input":5,
					"interpolation":"STEP",
					"output":6
				},
				{
					"input":7,
					"interpolation":"LINEAR",
					"output":8
				},
				{
					"input":5,
					"interpolation":"STEP",
					"output":9
				}
			]
		}
	],
	"materials":[
		{
			"doubleSided":true,
			"name":"\u30de\u30c6\u30ea\u30a2\u30eb",
			"pbrMetallicRoughness":{
				"baseColorFactor":[
					0.37347036600112915,
					0.1811911165714264,
					0.04149535670876503,
					1
				],
				"metallicFactor":0.9078947305679321,
				"roughnessFactor":0.3815789520740509
			}
		}
	],
	"meshes":[
		{
			"name":"\u30c8\u30fc\u30e9\u30b9",
			"primitives":[
				{
					"attributes":{
						"POSITION":0,
						"NORMAL":1,
						"TEXCOORD_0":2,
						"TEXCOORD_1":3
					},
					"indices":4,
					"material":0
				}
			]
		}
	],
	"accessors":[
		{
			"bufferView":0,
			"componentType":5126,
			"count":5564,
			"max":[
				1.2353026866912842,
				0.3599899113178253,
				7.238605499267578
			],
			"min":[
				-1.2353028059005737,
				-0.3599892556667328,
				-1.2353025674819946
			],
			"type":"VEC3"
		},
		{
			"bufferView":1,
			"componentType":5126,
			"count":5564,
			"type":"VEC3"
		},
		{
			"bufferView":2,
			"componentType":5126,
			"count":5564,
			"type":"VEC2"
		},
		{
			"bufferView":3,
			"componentType":5126,
			"count":5564,
			"type":"VEC2"
		},
		{
			"bufferView":4,
			"componentType":5123,
			"count":29868,
			"type":"SCALAR"
		},
		{
			"bufferView":5,
			"componentType":5126,
			"count":2,
			"max":[
				20.833333333333332
			],
			"min":[
				0
			],
			"type":"SCALAR"
		},
		{
			"bufferView":6,
			"componentType":5126,
			"count":2,
			"type":"VEC3"
		},
		{
			"bufferView":7,
			"componentType":5126,
			"count":501,
			"max":[
				20.833333333333332
			],
			"min":[
				0
			],
			"type":"SCALAR"
		},
		{
			"bufferView":8,
			"componentType":5126,
			"count":501,
			"type":"VEC4"
		},
		{
			"bufferView":9,
			"componentType":5126,
			"count":2,
			"type":"VEC3"
		}
	],
	"bufferViews":[
		{
			"buffer":0,
			"byteLength":66768,
			"byteOffset":0,
			"target":34962
		},
		{
			"buffer":0,
			"byteLength":66768,
			"byteOffset":66768,
			"target":34962
		},
		{
			"buffer":0,
			"byteLength":44512,
			"byteOffset":133536,
			"target":34962
		},
		{
			"buffer":0,
			"byteLength":44512,
			"byteOffset":178048,
			"target":34962
		},
		{
			"buffer":0,
			"byteLength":59736,
			"byteOffset":222560,
			"target":34963
		},
		{
			"buffer":0,
			"byteLength":8,
			"byteOffset":282296
		},
		{
			"buffer":0,
			"byteLength":24,
			"byteOffset":282304
		},
		{
			"buffer":0,
			"byteLength":2004,
			"byteOffset":282328
		},
		{
			"buffer":0,
			"byteLength":8016,
			"byteOffset":284332
		},
		{
			"buffer":0,
			"byteLength":24,
			"byteOffset":292348
		}
	],
	"buffers":[
		{
			"byteLength":292372,
			"uri":"%E9%8D%B5.bin"
		}
	]
}
